REM DIRINDEX 1\2\3,1\2\4,1\2\5,1\2\6
REM DIRNAME folder01,folder02,folder03,folder04,folder05,folder06
TITLE ""
FILE "013 013.mp3" MP3
  TRACK 01 AUDIO
    TITLE "0:"
    INDEX 01 00:00:00
  TRACK 02 AUDIO
    TITLE "3:cjc157_0442"
    INDEX 01 00:00:11
  TRACK 03 AUDIO
    TITLE "0:"
    INDEX 01 00:01:28
  TRACK 04 AUDIO
    TITLE "4:cjc157_0443"
    INDEX 01 00:01:73
  TRACK 05 AUDIO
    TITLE "0:"
    INDEX 01 00:03:00
  TRACK 06 AUDIO
    TITLE "5:cjc157_0444"
    INDEX 01 00:03:49
  TRACK 07 AUDIO
    TITLE "0:"
    INDEX 01 00:06:59
  TRACK 08 AUDIO
    TITLE "5:cjc157_0445"
    INDEX 01 00:07:33
  TRACK 09 AUDIO
    TITLE "0:"
    INDEX 01 00:10:27
  TRACK 10 AUDIO
    TITLE "3:cjc157_0446"
    INDEX 01 00:11:01
  TRACK 11 AUDIO
    TITLE "0:"
    INDEX 01 00:12:14
  TRACK 12 AUDIO
    TITLE "4:cjc157_0447"
    INDEX 01 00:12:61
  TRACK 13 AUDIO
    TITLE "0:"
    INDEX 01 00:13:69
  TRACK 14 AUDIO
    TITLE "5:cjc157_0448"
    INDEX 01 00:14:43
  TRACK 15 AUDIO
    TITLE "0:"
    INDEX 01 00:16:12
  TRACK 16 AUDIO
    TITLE "5:cjc157_0449"
    INDEX 01 00:16:57
  TRACK 17 AUDIO
    TITLE "0:"
    INDEX 01 00:18:66
  TRACK 18 AUDIO
    TITLE "3:cjc157_0450"
    INDEX 01 00:19:36
  TRACK 19 AUDIO
    TITLE "0:"
    INDEX 01 00:20:65
  TRACK 20 AUDIO
    TITLE "4:cjc157_0451"
    INDEX 01 00:21:37
  TRACK 21 AUDIO
    TITLE "0:"
    INDEX 01 00:22:66
  TRACK 22 AUDIO
    TITLE "5:cjc157_0452"
    INDEX 01 00:23:36
  TRACK 23 AUDIO
    TITLE "0:"
    INDEX 01 00:26:38
  TRACK 24 AUDIO
    TITLE "5:cjc157_0453"
    INDEX 01 00:27:08
  TRACK 25 AUDIO
    TITLE "0:"
    INDEX 01 00:30:46
  TRACK 26 AUDIO
    TITLE "3:cjc157_0454"
    INDEX 01 00:31:16
  TRACK 27 AUDIO
    TITLE "0:"
    INDEX 01 00:33:09
  TRACK 28 AUDIO
    TITLE "4:cjc157_0455"
    INDEX 01 00:33:58
  TRACK 29 AUDIO
    TITLE "0:"
    INDEX 01 00:35:04
  TRACK 30 AUDIO
    TITLE "5:cjc157_0456"
    INDEX 01 00:35:47
  TRACK 31 AUDIO
    TITLE "0:"
    INDEX 01 00:38:55
  TRACK 32 AUDIO
    TITLE "3:cjc157_0457"
    INDEX 01 00:39:23
  TRACK 33 AUDIO
    TITLE "0:"
    INDEX 01 00:40:46
  TRACK 34 AUDIO
    TITLE "4:cjc157_0458"
    INDEX 01 00:41:18
  TRACK 35 AUDIO
    TITLE "0:"
    INDEX 01 00:42:21
  TRACK 36 AUDIO
    TITLE "5:cjc157_0459"
    INDEX 01 00:42:66
  TRACK 37 AUDIO
    TITLE "0:"
    INDEX 01 00:45:12
  TRACK 38 AUDIO
    TITLE "5:cjc157_0460"
    INDEX 01 00:45:57
  TRACK 39 AUDIO
    TITLE "0:"
    INDEX 01 00:48:22
  TRACK 40 AUDIO
    TITLE "5:cjc157_0461"
    INDEX 01 00:48:65
  TRACK 41 AUDIO
    TITLE "0:"
    INDEX 01 00:51:07
  TRACK 42 AUDIO
    TITLE "3:cjc157_0462"
    INDEX 01 00:51:50
  TRACK 43 AUDIO
    TITLE "0:"
    INDEX 01 00:53:13
  TRACK 44 AUDIO
    TITLE "4:cjc157_0463"
    INDEX 01 00:53:57
  TRACK 45 AUDIO
    TITLE "0:"
    INDEX 01 00:55:04
  TRACK 46 AUDIO
    TITLE "5:cjc157_0464"
    INDEX 01 00:55:50
  TRACK 47 AUDIO
    TITLE "0:"
    INDEX 01 00:58:50
  TRACK 48 AUDIO
    TITLE "3:cjc157_0465"
    INDEX 01 00:59:14
  TRACK 49 AUDIO
    TITLE "0:"
    INDEX 01 01:00:57
  TRACK 50 AUDIO
    TITLE "4:cjc157_0466"
    INDEX 01 01:01:21
  TRACK 51 AUDIO
    TITLE "0:"
    INDEX 01 01:02:24
  TRACK 52 AUDIO
    TITLE "5:cjc157_0467"
    INDEX 01 01:02:71
  TRACK 53 AUDIO
    TITLE "0:"
    INDEX 01 01:04:66
  TRACK 54 AUDIO
    TITLE "5:cjc157_0468"
    INDEX 01 01:05:34
  TRACK 55 AUDIO
    TITLE "0:"
    INDEX 01 01:07:68
  TRACK 56 AUDIO
    TITLE "3:cjc157_0469"
    INDEX 01 01:08:35
  TRACK 57 AUDIO
    TITLE "0:"
    INDEX 01 01:10:04
  TRACK 58 AUDIO
    TITLE "4:cjc157_0470"
    INDEX 01 01:10:51
  TRACK 59 AUDIO
    TITLE "0:"
    INDEX 01 01:11:60
  TRACK 60 AUDIO
    TITLE "5:cjc157_0471"
    INDEX 01 01:12:28
  TRACK 61 AUDIO
    TITLE "0:"
    INDEX 01 01:14:21
  TRACK 62 AUDIO
    TITLE "5:cjc157_0472"
    INDEX 01 01:14:66
  TRACK 63 AUDIO
    TITLE "0:"
    INDEX 01 01:16:63
  TRACK 64 AUDIO
    TITLE "5:cjc157_0473"
    INDEX 01 01:17:35
  TRACK 65 AUDIO
    TITLE "0:"
    INDEX 01 01:19:13
  TRACK 66 AUDIO
    TITLE "3:cjc157_0474"
    INDEX 01 01:19:56
  TRACK 67 AUDIO
    TITLE "0:"
    INDEX 01 01:20:67
  TRACK 68 AUDIO
    TITLE "4:cjc157_0475"
    INDEX 01 01:21:41
  TRACK 69 AUDIO
    TITLE "0:"
    INDEX 01 01:22:68
  TRACK 70 AUDIO
    TITLE "5:cjc157_0476"
    INDEX 01 01:23:38
  TRACK 71 AUDIO
    TITLE "0:"
    INDEX 01 01:25:47
  TRACK 72 AUDIO
    TITLE "5:cjc157_0477"
    INDEX 01 01:26:15
  TRACK 73 AUDIO
    TITLE "0:"
    INDEX 01 01:28:35
  TRACK 74 AUDIO
    TITLE "5:cjc157_0478"
    INDEX 01 01:29:07
  TRACK 75 AUDIO
    TITLE "0:"
    INDEX 01 01:31:22
  TRACK 76 AUDIO
    TITLE "3:cjc157_0479"
    INDEX 01 01:31:65
  TRACK 77 AUDIO
    TITLE "0:"
    INDEX 01 01:33:01
  TRACK 78 AUDIO
    TITLE "4:cjc157_0480"
    INDEX 01 01:33:50
  TRACK 79 AUDIO
    TITLE "0:"
    INDEX 01 01:34:44
  TRACK 80 AUDIO
    TITLE "5:cjc157_0481"
    INDEX 01 01:35:18
  TRACK 81 AUDIO
    TITLE "0:"
    INDEX 01 01:39:25
  TRACK 82 AUDIO
    TITLE "5:cjc157_0482"
    INDEX 01 01:39:70
  TRACK 83 AUDIO
    TITLE "0:"
    INDEX 01 01:41:40
